<?xml version="1.0" encoding="UTF-8"?>
<svg width="195px" height="155px" viewBox="0 0 195 155" version="1.1" xmlns="http://www.w3.org/2000/svg" xmlns:xlink="http://www.w3.org/1999/xlink">
    <!-- Generator: Sketch 52.1 (67048) - http://www.bohemiancoding.com/sketch -->
    <title>paper</title>
    <desc>Created with Sketch.</desc>
    <g id="Page-1" stroke="none" stroke-width="1" fill="none" fill-rule="evenodd">
        <g id="paper" fill="#000000" fill-rule="nonzero">
            <path d="M154.220382,139.018965 C154.655718,136.400583 154.603667,133.938815 154.071327,131.623871 C157.390767,131.528435 160.719671,131.369374 164.046209,131.134454 L164.081698,131.134454 C169.005258,130.703767 173.086537,128.606615 176.325535,124.840549 C179.673366,120.961918 181.17575,116.451939 180.835052,111.303271 C180.57243,107.241108 179.21437,103.705069 176.765603,100.685365 C178.625246,100.42108 179.883936,100.1519 180.541673,99.8900622 L180.615018,99.8533559 C185.805931,97.8516397 189.778376,94.3890132 192.52762,89.4654765 L192.565475,89.4287702 C195.589171,84.0990172 195.795009,78.3263417 193.190088,72.0985083 L193.190088,72.1401087 C190.760249,65.8070506 185.493625,61.9651258 177.38785,60.6143344 L177.461195,60.6143344 C176.278215,60.3794142 174.96984,60.2056711 173.540801,60.0808697 C173.886231,59.520487 174.20327,58.9233981 174.491917,58.2969441 L174.529772,58.2210844 C176.540837,53.6352456 176.770335,48.9466291 175.22773,44.155235 C175.213534,44.12587 175.201704,44.0867166 175.187508,44.0426691 C173.510044,39.2659575 170.552595,35.7372597 166.317529,33.463917 L166.355384,33.463917 C162.662123,31.2933518 157.494869,30.5225198 150.848891,31.1514209 L150.848891,31.1122675 C146.022335,31.5184837 126.02052,36.0529338 90.8387132,44.7229589 C90.9380835,44.5467688 91.0350878,44.3681315 91.1320921,44.1919413 L91.1320921,44.2310947 C93.6683999,39.7847397 95.610852,34.8954622 96.9594485,29.5559209 L96.9239591,29.5950743 C98.5304451,23.6364202 97.9649809,17.2788912 95.2370305,10.5273814 C92.0666458,2.51317524 86.1304553,-0.927427455 77.4189952,0.212914547 L77.3835058,0.212914547 C68.9938161,1.06694751 63.5710387,6.81759924 61.1080756,17.4648697 C59.5583726,24.2530859 58.0181335,28.7508296 56.4873582,30.9629952 L56.4542348,31.0021486 C54.7578423,32.9940765 51.9825727,35.118147 48.1307919,37.3719131 C48.1071323,37.3817014 48.0811068,37.3939368 48.0574472,37.4086194 C42.5471293,40.5164184 38.2576461,45.2441882 35.1913635,51.5894818 L35.1913635,51.5503284 C34.2615417,53.4223491 33.44292,55.3408644 32.7331324,57.3132156 C29.6786796,55.2650047 27.0146101,54.3400063 24.7432897,54.5480086 C17.1627579,54.2372287 11.0988056,58.8769034 6.56089676,68.4621387 L6.59638614,68.4229853 C3.39997588,74.9518103 1.3226641,82.1927374 0.364450807,90.1506605 L0.364450807,90.1898139 C-0.567736939,98.2235967 0.288740127,106.286745 2.92915009,114.379257 L2.96463947,114.418411 C5.9220879,123.957151 13.3511984,128.927183 25.2519708,129.318717 C25.8836818,129.34074 26.4704396,129.252645 27.0122441,129.056878 C37.1030582,147.41981 57.3154437,152.663915 87.6423029,144.79164 C102.921665,149.935415 118.674218,153.309946 134.897597,154.912787 L134.933086,154.912787 C139.525412,155.367945 143.706061,154.041625 147.470302,150.931379 C151.244006,147.791768 153.491667,143.827488 154.220382,139.018965 Z M89.4806529,134.354819 C88.5200736,134.029357 87.5547625,134.007333 86.5847194,134.27896 C56.7807371,142.349449 38.6125399,135.676246 32.0753959,114.25935 C31.6802807,112.881641 30.8782207,111.846524 29.6550201,111.151551 C28.4270875,110.461473 27.1423719,110.321989 25.8079711,110.730652 C24.4735704,111.136869 23.4704039,111.968878 22.8008376,113.234021 C22.1312713,114.504059 21.9987776,115.830379 22.3962586,117.212983 C22.5216544,117.682823 22.6565141,118.150217 22.8008376,118.61761 C17.5815326,117.832096 14.1485265,115.294468 12.4994532,110.997385 L12.5373085,111.036538 C10.391384,104.478348 9.68159634,97.9421818 10.4103116,91.4304864 C11.2100057,84.7303654 12.9466194,78.6248862 15.6154209,73.1238372 L15.6532762,73.0822368 C18.0570903,68.0020866 21.0855175,65.307845 24.7456557,65.0044064 C26.046933,65.2637975 27.7811807,66.3258328 29.9507649,68.1929592 C29.8206372,68.9613442 29.714169,69.7321762 29.6195307,70.5030083 C29.4468157,71.9345535 29.7898797,73.2192736 30.6463568,74.3694039 C31.5099317,75.5072988 32.6337621,76.1655649 34.017848,76.3442022 C35.4019339,76.5228395 36.6511601,76.1704591 37.7584288,75.2797198 C38.8562336,74.3889806 39.4926765,73.2266148 39.6653915,71.7926225 C40.323128,66.247526 41.8373416,61.0915161 44.2103983,56.3221458 L44.2103983,56.2829925 C46.3090037,51.9394151 49.2309627,48.6896851 52.9715435,46.5411437 L53.0448882,46.5019903 C58.3162443,43.4260034 62.0544591,40.4650296 64.2618986,37.6313042 L64.299754,37.5921508 C66.6657127,34.831838 68.8778841,28.9270198 70.9362682,19.8850376 C72.1854945,14.4671896 74.7643895,11.3691789 78.6705874,10.5958998 L78.7084427,10.5958998 C82.1982319,10.1309535 84.6044119,11.4450386 85.9293488,14.5406022 C87.694354,18.9062033 88.1107628,23.0148604 87.1738431,26.8641265 L87.1359878,26.9008327 C86.0429148,31.2713281 84.4671863,35.2772076 82.4064362,38.9209184 L82.4064362,38.9600718 C79.8748604,43.4455801 78.3227914,47.4147534 77.7525954,50.8651444 C77.7218379,50.967922 77.6981783,51.0682525 77.6792507,51.168583 C77.6461272,51.3643499 77.6201017,51.5699051 77.6059059,51.7754603 C77.4923399,53.4443729 77.542025,56.5668544 77.7525954,61.145352 L77.7525954,61.2187646 C77.8827231,64.8159808 76.8062119,69.32596 74.5277936,74.7535964 L74.4923042,74.7535964 C72.1736647,80.0613256 67.737492,84.3730908 61.1837863,87.6815509 C59.9345601,88.3202403 59.078083,89.3137572 58.619087,90.676784 C58.1577251,92.0373637 58.2310698,93.3636842 58.8391212,94.6606397 C59.4519045,95.9551481 60.4195816,96.8434403 61.7350547,97.3157279 C63.0434299,97.7904625 64.3257795,97.7170499 65.5844696,97.0857018 C74.6744831,92.5096513 80.7478991,86.458008 83.8023519,78.9258778 L83.7668625,78.9258778 C86.8473408,71.6482445 88.2148649,65.5696832 87.8718009,60.687747 L87.8718009,60.6143344 C87.7960902,58.9307393 87.7440392,57.4771703 87.7227455,56.2536274 C125.433762,46.9253362 146.769978,42.0336116 151.726661,41.5784536 L151.726661,41.5393003 C155.933336,41.1575549 159.219653,41.5466415 161.587978,42.7139015 L161.628199,42.7139015 C163.516234,43.7612542 164.848269,45.35186 165.621937,47.4930601 C165.636133,47.5297664 165.647963,47.5664727 165.662158,47.603179 C166.315163,49.7223553 166.203963,51.795037 165.330924,53.8212241 C165.319094,53.848142 165.304899,53.87506 165.293069,53.8995308 C164.42003,55.7593161 163.052506,57.0464832 161.18813,57.7683736 L161.225986,57.7267731 C158.195193,58.8622209 155.138374,59.8997853 152.060262,60.8370192 C151.967989,60.8614901 151.870985,60.888408 151.769249,60.9128789 C151.288959,61.086622 149.954558,61.5026266 147.773144,62.1657868 C147.661944,62.1829164 147.550744,62.2098344 147.44191,62.2416465 C136.863709,65.4326464 122.750765,68.4034086 105.100713,71.151486 C103.714261,71.3619354 102.60226,72.0422253 101.767077,73.1972498 C100.938991,74.3694039 100.633782,75.6712536 100.849085,77.1052459 C101.050191,78.5245557 101.710294,79.6624506 102.829392,80.5213777 C103.953223,81.3705165 105.200083,81.6886377 106.567607,81.4683999 C124.71451,78.6689337 139.243863,75.6345473 150.153299,72.3676877 C161.616369,70.4418311 170.131455,69.9597552 175.703287,70.9263541 L175.778998,70.9263541 C179.798762,71.5919615 182.500687,73.3636516 183.880041,76.2340833 L183.880041,76.2707896 C185.084314,79.1461155 185.046458,81.813439 183.768841,84.2752074 L183.806696,84.2336069 C182.268823,86.971896 180.056651,88.9075409 177.170182,90.0356475 C173.479286,91.2445079 150.408822,92.8889496 107.961157,94.9665255 C107.899642,94.9616313 107.838127,94.9616313 107.778978,94.9665255 C106.416186,95.0252555 105.26633,95.580744 104.331776,96.635438 C103.387758,97.6925791 102.933494,98.9308045 102.976082,100.352561 C103.025767,101.78166 103.548644,102.995414 104.55181,103.991378 C105.550245,104.975107 106.73559,105.457182 108.107846,105.430265 C108.169361,105.430265 108.230876,105.430265 108.292391,105.430265 C142.409516,104.874776 160.371875,104.549314 162.179467,104.446536 L162.250446,104.446536 C164.422396,104.287475 166.329359,104.916376 167.968968,106.34058 L168.006824,106.377287 C169.660629,107.882245 170.564425,109.756712 170.718212,111.993349 C170.867268,114.227538 170.218995,116.185207 168.77576,117.868802 C167.332525,119.54995 165.510737,120.48229 163.315127,120.673162 C159.879755,120.925212 156.446749,121.096508 153.013743,121.20418 C150.581537,121.250674 148.073621,121.275145 145.499458,121.277592 C145.25813,121.255569 145.014437,121.255569 144.766011,121.277592 C132.347093,121.260463 118.089826,120.364829 101.984745,118.585798 C100.603025,118.434079 99.3703604,118.813377 98.2820194,119.723693 C97.1913124,120.624221 96.5666993,121.79148 96.412912,123.21079 C96.2662226,124.642335 96.6329462,125.91482 97.5130828,127.038033 C98.3837556,128.166139 99.509952,128.814617 100.88694,128.973677 C116.674983,130.720897 130.740607,131.641001 143.079082,131.741331 C143.100376,131.778038 143.126401,131.814744 143.152427,131.856345 C144.224206,133.444503 144.59093,135.267582 144.252598,137.313346 L144.252598,137.354946 C143.907168,139.525512 142.882708,141.316778 141.17212,142.733641 C139.570365,144.064856 137.798262,144.661945 135.858176,144.520014 C119.921078,142.931855 104.461904,139.540194 89.4806529,134.354819 Z" id="Shape"></path>
        </g>
    </g>
</svg>