<?xml version="1.0" encoding="UTF-8"?>
<svg width="152px" height="137px" viewBox="0 0 152 137" version="1.1" xmlns="http://www.w3.org/2000/svg" xmlns:xlink="http://www.w3.org/1999/xlink">
    <!-- Generator: Sketch 52.1 (67048) - http://www.bohemiancoding.com/sketch -->
    <title>rock</title>
    <desc>Created with Sketch.</desc>
    <g id="Page-1" stroke="none" stroke-width="1" fill="none" fill-rule="evenodd">
        <g id="rock" fill="#000000" fill-rule="nonzero">
            <path d="M100.669091,131.875269 C104.78398,128.285932 106.815745,123.976244 106.764386,118.952414 C106.764386,118.819936 106.764386,118.687458 106.764386,118.554979 C111.972196,117.836698 116.760916,115.897131 121.13671,112.732139 L121.177797,112.69074 C127.856531,107.71452 131.129131,101.717802 130.993543,94.702656 C130.98738,93.0239062 130.804542,91.3865559 130.438865,89.794745 C131.046957,89.3973098 131.694081,88.9708949 132.37613,88.5217103 C132.45625,88.4492612 132.53637,88.385092 132.614436,88.3209228 C137.023099,85.2138901 139.229485,80.2418099 139.225376,73.4005421 C139.381508,69.585578 138.05028,65.7023047 135.22964,61.7548622 C136.575248,60.9724116 137.867442,60.1092319 139.108277,59.1632533 C139.751293,58.7078588 140.490864,58.1220558 141.324935,57.4079144 C141.628981,57.1429576 141.90632,56.8490211 142.156952,56.528175 C142.214474,56.4495159 142.282268,56.3563671 142.356225,56.2487284 C148.905535,50.2106109 152.112395,44.2097531 151.974753,38.2627146 C152.317832,32.1045386 149.164384,26.1347304 142.514411,20.34915 L142.473324,20.3118904 C131.589309,10.4919285 117.773717,8.55029182 101.024496,14.4890504 C100.652656,14.0812653 100.270545,13.6693403 99.8761069,13.2512053 L99.8761069,13.2926048 C91.3587179,4.33996244 81.9887682,-0.0897843027 71.7683122,0.00750452765 C64.5513349,-0.189143108 56.3421003,3.47885279 47.1447171,11.0177022 L47.1036299,11.0591017 C41.6534048,15.3004807 37.0886102,21.8664417 33.4071917,30.7631948 C31.1864253,29.5688191 28.9574414,29.0244157 26.7161313,29.1279144 C18.5294947,28.8029283 11.9842942,33.6797897 7.07847531,43.7688484 L7.11956257,43.7274489 C3.67028707,50.6515156 1.42692267,58.271094 0.391523708,66.5841141 L0.391523708,66.6213736 C-0.611005441,75.073082 0.311403551,83.5827497 3.16285941,92.1503767 L3.20394667,92.1917762 C6.17044686,101.527364 13.3114127,106.696092 24.6206811,107.70831 C25.7772874,109.995632 27.2831355,112.390593 29.1341166,114.889053 L29.1731495,114.930453 C35.5457836,124.090093 46.2592867,127.402053 61.3177675,124.862193 C62.4209605,126.126948 63.6885025,127.404123 65.1203935,128.693717 L65.1203935,128.735117 C71.4046899,134.415129 77.9355099,137.166125 84.7169622,136.992248 L84.795028,136.992248 C91.7367207,136.855629 97.0020531,135.178949 100.591025,131.964278 C100.611569,131.924949 100.64033,131.900109 100.669091,131.875269 Z M86.1406358,89.1157932 C86.2187016,89.1613327 86.2967674,89.215152 86.3768876,89.2751813 C86.9069132,89.5918875 87.4348845,89.9148036 87.9608014,90.2315098 C91.9051784,92.624401 96.0611548,94.3135007 100.428731,95.2967389 C103.612993,96.0191602 106.885594,96.3772659 110.246531,96.3731259 C113.664991,96.371056 116.937592,95.9053116 120.064332,94.9779627 C119.838352,98.362372 118.055165,101.301737 114.71888,103.793987 L114.677792,103.835386 C110.940906,106.524284 106.745897,107.867698 102.088656,107.863558 C96.5665281,107.861488 91.4182944,106.395945 86.6480635,103.477281 L86.6891507,103.51454 C81.8387997,100.473747 79.344803,96.5532138 79.2071606,91.7467316 C79.2051063,89.8195847 79.8111434,88.385092 81.0273263,87.4411833 L81.1074464,87.4411833 C81.6395265,87.0975675 82.2332374,86.8284707 82.8885792,86.6421729 C83.8808365,87.4929327 84.9655402,88.3188528 86.1406358,89.1157932 Z M101.340868,65.5822461 C101.560685,65.6484853 101.772284,65.7002347 101.975666,65.7416342 C102.554996,65.847203 103.136381,65.9527717 103.717766,66.0583404 L103.440427,65.9796814 C107.762807,67.0167389 112.12011,67.3893344 116.504121,67.0953979 L116.543154,67.0953979 C119.16863,66.9422198 121.79616,66.5592744 124.423691,65.9382819 C126.819078,68.5402406 128.111272,71.0262807 128.304382,73.3964022 C128.300274,75.9962909 127.628497,77.9751871 126.284943,79.3413707 L126.163736,79.4614293 C126.122649,79.486269 126.08567,79.5131786 126.044583,79.5421583 C125.311175,80.0182526 124.625018,80.486067 123.986111,80.9393915 L123.947078,80.9393915 C123.221888,81.4568853 122.548057,81.9246997 121.927639,82.3345547 C121.863954,82.3676743 121.798215,82.4070039 121.730421,82.4546133 C121.420212,82.5767418 121.116166,82.7361299 120.820338,82.9327775 C120.606684,82.9990167 120.395085,83.0756058 120.18554,83.1708247 C117.108104,84.638437 113.796471,85.3712082 110.248586,85.3649983 C107.701176,85.3608583 105.219505,85.0814117 102.805629,84.5307983 C99.5761699,83.810447 96.5007885,82.5746718 93.5815386,80.8193329 C93.0556217,80.5005568 92.5276504,80.1797106 91.9976248,79.8609345 C90.5924405,78.8694164 89.4050186,77.8054492 88.4353593,76.6711028 L88.4353593,76.7125023 C86.4590621,74.3423808 85.4709135,71.6452032 85.4668047,68.6126897 C85.4688591,66.5654843 86.1550164,65.0502625 87.5273308,64.0670244 L87.5273308,64.0256249 C89.294083,63.0361767 91.5929152,62.5455926 94.41561,62.5518026 C96.4021791,63.7503182 98.7112831,64.758396 101.340868,65.5822461 Z M135.30976,28.6456102 L135.348793,28.6870097 C138.970635,31.8292319 140.870921,34.9673142 141.04965,38.0971166 C140.755876,41.3780271 138.658372,44.7934861 134.755082,48.3497033 C134.576353,48.5235812 134.40584,48.711949 134.241491,48.9085966 C134.101795,49.0804045 133.968261,49.2397926 133.847054,49.3888308 C133.485486,49.6827673 133.156788,49.9332343 132.858905,50.1464417 C132.793165,50.202331 132.727426,50.2561504 132.659632,50.3058298 C130.599106,51.9017806 128.316708,53.1789553 125.810386,54.1373537 C124.982477,54.3795408 124.138134,54.6196579 123.277356,54.8535651 C120.810066,55.5428668 118.342776,55.9527219 115.873432,56.0914102 L115.834399,56.0914102 C112.52482,56.3273874 109.237839,56.0603606 105.975511,55.2923998 C105.883064,55.2654902 105.788564,55.2406505 105.698172,55.2137408 C105.221559,55.1247319 104.744947,55.033653 104.272444,54.9342942 C103.79994,54.781116 103.335654,54.6237979 102.887803,54.4540599 C104.707969,53.4439121 106.289828,52.0487488 107.63749,50.2665003 C107.660088,50.2251008 107.684741,50.1857712 107.719665,50.1485117 C109.474091,47.79288 110.610154,44.9590841 111.12169,41.6533338 C112.208448,42.1087284 113.792362,42.8001 115.873432,43.7253789 C117.26629,44.3484414 118.663257,44.387771 120.070495,43.8475074 C121.467462,43.2948241 122.469991,42.3260757 123.078083,40.9329825 C123.6985,39.5336793 123.737533,38.1260962 123.19929,36.7040233 C122.648721,35.2985102 121.687279,34.2883624 120.308801,33.6756497 C115.483103,31.5166657 112.565907,30.3719695 111.559269,30.243631 C111.388757,30.2229313 111.216191,30.2105114 111.045679,30.2022315 C110.840242,30.1836017 110.643023,30.1711819 110.451968,30.160832 C110.423207,30.0656131 110.398554,29.9703943 110.371848,29.8834553 C110.359521,29.8213561 110.345141,29.7551169 110.33076,29.6847377 C109.747321,27.7845006 108.915304,25.8697736 107.836764,23.9384868 C118.776247,20.8666437 127.932543,22.4336149 135.30976,28.6456102 Z M37.9226816,108.341722 L37.8815943,108.300323 C33.7441072,102.67413 32.3204336,98.1553745 33.6044105,94.7378456 C34.3131658,93.3923618 34.4466994,91.9951286 34.0009026,90.550286 C33.5612689,89.0950934 32.6778928,88.0062865 31.3487199,87.2817952 C30.0174927,86.5676538 28.6307977,86.4351754 27.1927436,86.88436 C25.7505807,87.3294047 24.6679314,88.2215639 23.94685,89.5546279 C22.7183409,91.545944 22.005477,93.6987181 21.8103125,96.0170902 C17.7365106,94.7978749 14.9651749,92.3283946 13.4963054,88.5962294 L13.5353383,88.6376289 C11.2180168,81.6907925 10.4537937,74.7915654 11.2385604,67.9378778 L11.2385604,67.8964783 C12.107556,60.9061724 13.9831894,54.4975294 16.861352,48.6684795 L16.9003849,48.6312199 C19.4970997,43.2844742 22.7676456,40.4506783 26.7181857,40.1339721 C27.6837363,40.2643805 28.6718849,40.7156351 29.6867403,41.4898058 C28.8855387,44.2884121 28.145968,47.2381267 27.4700826,50.3451593 C27.1537107,51.8251915 27.4043429,53.2100049 28.2219794,54.4933895 C29.0313985,55.7850539 30.1654068,56.5944142 31.6260589,56.9276802 C33.0969829,57.2485263 34.4692973,56.9959894 35.7430024,56.1700693 C37.0208162,55.3524291 37.8261265,54.2139428 38.1568789,52.7380506 C41.6575135,36.6274343 46.9228459,25.5923969 53.9528761,19.6308686 L53.9939634,19.5894691 C60.7199479,14.0709154 66.6467852,11.2102098 71.7683122,11.0135622 C79.0736271,11.1253409 85.8016659,14.4228112 91.9585919,20.9080432 C93.0391868,22.0382497 94.019118,23.170526 94.8881135,24.2986625 C94.9148202,24.335922 94.9394726,24.3773215 94.9661793,24.4166511 C95.0771149,24.5718992 95.1942136,24.7188674 95.3236385,24.8554858 C97.4951002,27.6437423 99.0112201,30.3719695 99.8761069,33.0318875 L99.8350196,32.8331699 C100.093869,33.7543088 100.293143,34.6713078 100.428731,35.5841668 C100.424622,35.6566159 100.424622,35.7207852 100.428731,35.7849544 C100.473927,36.2838184 100.502688,36.8013122 100.508851,37.3395057 C100.506796,39.8979949 99.9521183,42.0135095 98.8448167,43.6798395 L98.9228825,43.6011804 C97.969658,44.8638652 96.6240503,45.462088 94.8860592,45.3958488 C94.0910207,45.4061987 93.3247433,45.3109799 92.5892813,45.1164022 L92.4701283,45.0750027 L92.429041,45.0750027 C90.7978768,44.5161094 89.2673763,43.5038916 87.8375397,42.0466291 L87.7985068,42.0466291 C84.2814373,38.5380213 81.721701,36.0230015 80.1172435,34.5036398 C79.8953723,33.9799361 79.576946,33.491422 79.1681278,33.0298175 C78.2313382,31.9824101 77.0706231,31.3841873 75.6839281,31.2351491 C74.29107,31.079901 73.0255823,31.409027 71.8833565,32.2328771 C70.7514025,33.0670771 70.0385385,34.1724438 69.7447646,35.5427673 C69.1736517,37.5092437 69.4776974,40.1795115 70.6548474,43.5618509 L70.6959347,43.6425799 C71.2773194,45.2406007 71.6060175,46.4101366 71.6861377,47.1511877 C71.5813651,50.5790665 70.1864527,54.1290738 67.489074,57.8032797 L67.4479868,57.8405392 C64.9067397,61.2021788 62.2792094,63.1603753 59.5695046,63.7047787 C58.0842002,63.9055663 56.8844522,64.6114278 55.9661519,65.8182233 C55.0396342,67.0270888 54.6677945,68.3829225 54.8588502,69.8877944 C55.0581234,71.3843864 55.7566069,72.5932518 56.9563549,73.5185307 C58.1561029,74.4500195 59.5017106,74.824685 60.9972869,74.6342473 C65.8127138,74.1788528 70.3631279,71.4278559 74.6546922,66.3791866 C74.5745721,67.0995379 74.5334848,67.842659 74.5334848,68.6106197 C74.5334848,71.7735417 75.0984346,74.7377461 76.2365517,77.5073728 C75.8462228,77.7309301 75.4641112,77.9731172 75.0861084,78.2256541 C70.5480206,81.0097707 68.2800038,85.5140365 68.2779494,91.7467316 C68.269732,92.3553043 68.2820582,92.9535271 68.3190367,93.5414 C64.8451088,94.0154243 61.8888805,95.7956029 59.4524059,98.8881457 L59.413373,98.9274752 C56.82693,102.063488 55.5347357,106.02335 55.5326813,110.815342 C55.514192,112.011788 55.6333451,113.208234 55.8880861,114.404679 C47.7938958,115.044301 41.8013189,113.021936 37.9226816,108.341722 Z M84.5567219,125.97377 C80.386365,125.882691 76.3351612,124.059043 72.401056,120.506966 L72.401056,120.548365 C70.6630649,118.950345 69.2784242,117.379233 68.2450796,115.843312 L68.1670138,115.721183 C68.0992198,115.619755 68.0334802,115.526606 67.9677406,115.441737 C67.0124618,113.887185 66.5111972,112.345054 66.4639469,110.815342 C66.4618925,108.821956 66.9487766,107.155626 67.9307621,105.830842 L67.969795,105.789443 C68.6354086,104.938683 69.4550994,104.485358 70.4247588,104.433609 C70.6712823,104.429469 70.8705555,104.429469 71.0184697,104.433609 C71.1068073,104.468799 71.1992536,104.508128 71.2958087,104.551598 C71.6060175,104.710986 71.9244438,104.843464 72.2469788,104.951103 C74.3157223,107.892537 77.2062111,110.525546 80.9163907,112.850128 L80.9574779,112.887387 C85.5284356,115.683924 90.3582431,117.505502 95.4469003,118.354192 C95.5722164,118.542559 95.7180762,118.726787 95.8824252,118.913085 L95.8433923,118.954484 C95.7920332,120.703613 95.0524626,122.216765 93.6246803,123.50015 C91.52923,125.062981 88.5339687,125.886831 84.6388964,125.97584 L84.5567219,125.97584 L84.5567219,125.97377 Z" id="Shape"></path>
        </g>
    </g>
</svg>