<?xml version="1.0" encoding="UTF-8"?>
<svg width="200px" height="137px" viewBox="0 0 200 137" version="1.1" xmlns="http://www.w3.org/2000/svg" xmlns:xlink="http://www.w3.org/1999/xlink">
    <!-- Generator: Sketch 52.1 (67048) - http://www.bohemiancoding.com/sketch -->
    <title>scissors</title>
    <desc>Created with Sketch.</desc>
    <g id="Page-1" stroke="none" stroke-width="1" fill="none" fill-rule="evenodd">
        <g id="scissors" fill="#000000" fill-rule="nonzero">
            <path d="M3.21755086,91.6967081 C6.39383913,101.687588 14.38021,106.888751 27.1838712,107.297777 C27.5875145,107.312298 27.9815473,107.285675 28.3611642,107.217908 C29.45917,108.895156 30.7589975,110.509476 32.265452,112.065711 C37.8876264,117.925188 44.4948826,120.836774 52.092026,120.79805 C52.8608703,120.814991 54.086216,120.681877 55.7560499,120.403545 C56.6017787,120.26559 57.1399697,120.185721 57.3754283,120.163939 C57.5267946,120.163939 57.6661476,120.163939 57.8079033,120.163939 C59.1629915,122.710064 61.0682839,125.26103 63.5237806,127.826517 L63.5622228,127.865242 C69.4703112,134.068397 75.8949669,137.110678 82.8385926,136.996925 C88.9004499,136.970302 94.2078786,135.266431 98.7608788,131.875631 C103.998631,127.995936 106.521402,123.484551 106.331593,118.336634 C106.331593,118.249504 106.331593,118.155113 106.331593,118.058303 C112.962876,117.835638 119.005512,116.049477 124.464307,112.699822 L124.505152,112.656257 C131.801965,108.04564 135.338649,102.42093 135.107996,95.7821259 C135.151244,93.4901291 134.78364,91.2828417 134.002782,89.1481624 C140.485101,90.3728197 147.106773,91.428058 153.870201,92.3259786 C167.843947,94.1726456 177.331967,94.7002647 182.329456,93.9136765 C182.355885,93.8991549 182.382314,93.8846333 182.408743,93.8725319 C188.891062,92.8608585 193.871732,89.2207706 197.34835,82.9546883 L197.307505,82.9934127 C200.973932,76.821721 200.897047,69.8489195 197.069644,62.0677474 C193.977448,54.4124295 183.965653,49.9518696 167.034258,48.688488 C166.837242,48.6715461 166.637823,48.6594447 166.443209,48.6473434 C178.273802,44.9709513 185.47451,40.3482332 188.04293,34.7912905 L188.083775,34.7501458 C192.216314,27.0076981 192.778531,20.7730794 189.780038,16.0511302 C187.336555,11.4792378 183.672531,8.33288516 178.783161,6.59997094 L178.860046,6.59997094 C174.696273,5.03647572 169.955867,4.34911868 164.629217,4.53547957 L164.54993,4.53547957 C159.713418,4.57904445 150.042798,7.10822791 135.542874,12.1157691 C124.188003,16.031768 114.767257,19.8436952 107.278233,23.553971 C105.411383,20.1776927 102.806922,16.7409075 99.4744625,13.2315142 C90.9955507,4.31281461 81.6661049,-0.08965879 71.4885277,0.00715205998 C64.2902223,-0.184049369 56.1068351,3.45845886 46.9311582,10.9274159 C41.4963896,15.1774123 36.9554026,21.7266663 33.288976,30.5800185 C31.0785485,29.4207086 28.8585104,28.8906691 26.6312644,28.9923205 C18.4935273,28.6776853 11.9487397,33.5327494 7.00170671,43.5647737 C3.63801262,50.4456049 1.44200091,58.0186336 0.418476847,66.2790194 C-0.633878875,74.7233458 0.298344915,83.1942952 3.21755086,91.6967081 Z M82.9225973,112.720222 L82.9661105,112.720222 C86.6719849,114.685757 90.5591644,116.115237 94.622814,117.020901 C94.8452149,117.481076 95.1328855,117.926564 95.4954955,118.345128 C95.3069383,120.095261 94.248117,121.686292 92.3214491,123.125563 C89.6018739,125.154739 86.4326623,126.155864 82.8017273,126.136282 C78.6993993,126.021238 74.8654026,124.080181 71.2997374,120.310662 L71.2634764,120.273946 C67.96856,116.81529 66.2352841,113.442306 66.0660661,110.150096 C66.0660661,108.177218 66.5519635,106.505412 67.533428,105.129782 L67.5721064,105.090619 C68.2417262,104.273074 69.0588075,103.847167 70.0330197,103.808003 C70.4874909,103.805555 70.789666,103.805555 70.9443796,103.808003 C70.9927276,103.817794 71.0289886,103.832481 71.067667,103.849615 L70.9081186,103.849615 C71.526973,104.15803 72.1506622,104.346506 72.7719341,104.410147 C75.061212,107.553045 78.4455722,110.321438 82.9225973,112.720222 Z M16.6825347,48.3496597 C19.3025266,43.0097142 22.582315,40.1871024 26.5242992,39.8794014 C27.4840032,40.0102349 28.470099,40.4608836 29.475389,41.2313476 C28.6788347,44.0176168 27.9422618,46.9613708 27.2680698,50.0577639 C26.9537667,51.5308523 27.2032898,52.9094499 28.0190382,54.1911337 C28.8251895,55.4752404 29.955241,56.2844699 31.4019948,56.6163993 C32.8631441,56.9362146 34.2331215,56.6842389 35.4975316,55.8628952 C36.7667401,55.04882 37.5680929,53.9076611 37.9015901,52.4418412 C41.3877148,36.3662793 46.6372957,25.3302304 53.6431349,19.3336945 C60.334671,13.8774526 66.2248543,11.0548407 71.3184832,10.8634361 C78.5762447,10.9748869 85.2677808,14.2602617 91.3930916,20.7219834 L91.3930916,20.6807951 C95.2774935,24.7826679 97.8878883,28.7464387 99.2242762,32.564839 C99.2386717,32.6060273 99.2530673,32.6447928 99.2674628,32.6835583 C99.675337,34.1566467 99.8912704,35.6273123 99.896069,37.095555 C99.896069,39.6201572 99.3562355,41.6844192 98.2837662,43.2980325 C97.3408571,44.5288367 96.011667,45.1127418 94.3057932,45.0449022 C91.7337865,44.9794854 89.3849109,43.891629 87.2615658,41.7886015 C83.8042322,38.328782 81.2730129,35.8380996 79.6655087,34.3141315 C79.4495753,33.7520319 79.1160782,33.2190065 78.6818121,32.7223238 C77.7485,31.6780785 76.5920567,31.084482 75.21968,30.9342658 C73.8329077,30.7792038 72.5708969,31.1111333 71.4384462,31.9276313 C70.3131933,32.7610892 69.6054116,33.8610599 69.3151011,35.2275432 C68.7392787,37.1633946 69.0295892,39.8406359 70.1764355,43.2544214 C70.2100251,43.290764 70.2316184,43.3319523 70.255611,43.3755635 C70.836232,44.969794 71.1649306,46.1351814 71.2393076,46.8717256 C71.140938,50.287934 69.7253746,53.8252844 66.9902182,57.4861999 C64.4733945,60.8345686 61.848604,62.7922256 59.1182462,63.3688622 C57.6522983,63.586918 56.4670639,64.3016567 55.5745392,65.5155009 C54.6604211,66.7390365 54.3101291,68.1055198 54.511667,69.6101052 C54.7276004,71.0904621 55.4353821,72.2849236 56.6398106,73.188644 C57.8538361,74.1069014 59.2022203,74.4654821 60.6921607,74.2595405 C66.0425105,73.6707897 71.030572,70.276387 75.6491475,64.0836008 C78.8641559,59.7927462 80.8843328,55.5769998 81.707279,51.44363 C85.5364979,54.5472916 89.7352029,56.0712597 94.3033939,56.0155343 C99.7161245,55.9622318 103.941221,53.9221981 106.978684,49.8954334 L107.021871,49.8154796 C109.512303,46.5543332 110.762317,42.3119355 110.762317,37.095555 C110.764717,36.0658468 110.711933,35.0312929 110.606366,33.9967391 C117.909713,30.2607155 127.317211,26.4059726 138.828861,22.4300876 C151.76807,17.9357142 160.347824,15.5904024 164.570521,15.3917293 L164.647298,15.3917293 C168.43333,15.2657415 171.80429,15.7430415 174.764977,16.8236294 L174.844153,16.8236294 C177.094658,17.6328589 178.790935,19.0938331 179.918587,21.1968606 C180.607175,23.2368942 180.014558,26.0037807 178.150333,29.5047885 L178.19112,29.4684459 C175.386385,33.7253807 167.540805,37.3547992 154.65198,40.3567014 L154.692768,40.3179359 C139.476661,43.799561 125.136284,47.651881 111.666838,51.8845874 C110.325652,52.3110077 109.303567,53.1468885 108.598185,54.387384 C107.878407,55.6278795 107.669671,56.9410603 107.96718,58.3220807 C108.28868,59.7079467 109.03485,60.8054945 110.215286,61.6244154 C111.36933,62.4506048 112.643337,62.7679972 114.032509,62.5765926 C134.829294,59.6207244 152.137556,58.6297817 165.950096,59.596496 C177.408961,60.4517595 184.414801,62.8770251 186.972412,66.86987 C188.92301,70.8530235 189.110152,74.4097568 187.521842,77.5642981 L187.481055,77.6030636 C185.81117,80.6606912 183.433503,82.4754004 180.357652,83.0496141 L180.434428,83.006003 C175.981402,83.5971766 167.502417,83.066574 155.007071,81.4190409 C142.103851,79.7060911 129.718871,77.4043904 117.852131,74.5042476 C116.748471,74.1383984 115.594427,73.8597714 114.3852,73.6683669 C114.28683,73.651407 114.198058,73.6392928 114.114084,73.6271785 C113.629433,73.5762988 113.115992,73.5205735 112.576158,73.4696938 C111.088617,73.312209 109.759427,73.7095552 108.600584,74.6617324 C107.441742,75.6211782 106.781945,76.856828 106.63559,78.3589905 C106.479638,79.8587302 106.873117,81.1985623 107.813627,82.3687953 C108.768532,83.5438741 109.989756,84.2053102 111.474898,84.3579492 C111.885171,84.4015604 112.27865,84.4427487 112.655334,84.4790914 C112.746505,84.4960513 112.837677,84.5081655 112.931248,84.5202797 C113.367914,84.6050792 113.799781,84.7092615 114.229248,84.8376721 C114.349211,84.8909747 114.478771,84.9442772 114.622727,84.9951569 C116.566127,85.6759757 118.413558,86.8050205 120.172215,88.3750226 L120.213003,88.4162109 C122.624259,90.6549177 123.881471,93.1068346 123.991837,95.7695388 C123.763907,98.6599902 121.942869,101.189438 118.519125,103.362728 L118.562312,103.32154 C114.423588,105.877639 109.807412,107.147209 104.706585,107.137517 C98.6340582,107.149631 93.0149913,105.797685 87.8613808,103.081678 L87.899769,103.081678 C82.9428979,100.433511 80.332503,97.0924109 80.0685844,93.0656462 C80.0253977,91.5489466 80.6348098,90.448976 81.8776264,89.7633115 L81.8392383,89.8069227 C83.6626759,88.9056252 86.0379433,88.4549764 88.9626412,88.4549764 C89.9751289,88.5785414 92.1032725,89.2666287 95.3398742,90.5216613 C95.3782624,90.5361984 95.4142513,90.5531583 95.457438,90.5604268 C98.6028678,91.866339 100.505481,92.7264482 101.165277,93.1431772 C102.304926,94.1438113 103.614922,94.59446 105.102463,94.4951235 C106.590004,94.3812499 107.823224,93.7440422 108.802122,92.590769 C109.795416,91.4423416 110.239279,90.1170466 110.143308,88.614884 C110.023345,87.1151443 109.39234,85.8698031 108.252692,84.8788604 C107.35057,83.9242604 104.409077,82.4148293 99.4330118,80.3481444 C99.3898251,80.3360302 99.3538362,80.323916 99.315448,80.3069561 C94.1138524,78.2935738 90.6661158,77.3559336 88.9650404,77.4843443 C83.9145982,77.4794986 79.8310577,78.3541448 76.724016,80.108283 L76.6808293,80.1494713 C71.75035,82.8436725 69.2623174,87.1248357 69.2023359,92.9856924 C65.1859747,93.1625599 61.8126151,94.9554636 59.089455,98.3522892 L59.0462684,98.3959004 C56.6326128,101.39538 55.3490087,105.065987 55.1906576,109.402875 C54.8019774,109.453755 54.3557151,109.521594 53.8494712,109.601548 L53.8110831,109.601548 C52.961745,109.746919 52.3451352,109.826873 51.9612536,109.84141 C47.3738685,109.805067 43.3719028,108.002472 39.9553566,104.43847 C36.6563741,101.027108 34.8857203,97.1578277 34.6457943,92.8330533 C34.5714172,91.3163537 33.9811992,90.049207 32.8703419,89.0170759 C31.764283,87.9897906 30.4614848,87.5149134 28.9763429,87.5851758 C27.4768054,87.6554383 26.2171939,88.2514576 25.1999077,89.370811 C24.1826214,90.4901643 23.7099672,91.8009223 23.7795458,93.3055077 C23.8179339,94.2237651 23.8971095,95.1250626 24.0146732,96.0118231 C18.6595249,95.1299083 15.1158179,92.4914325 13.39075,88.1012414 C11.0514715,81.2373277 10.3077009,74.4049111 11.1402441,67.5918772 C12.0015785,60.5922843 13.8514079,54.1790195 16.6825347,48.3496597 Z" id="Shape"></path>
        </g>
    </g>
</svg>