<svg width="195" height="155" xmlns="http://www.w3.org/2000/svg"><g id="Page-1" stroke="none" stroke-width="1" fill="none" fill-rule="evenodd"><g id="paper" fill="#000" fill-rule="nonzero"><path d="M154.22 139.019c.436-2.618.384-5.08-.149-7.395a239.26 239.26 0 0 0 9.975-.49h.036c4.923-.43 9.005-2.527 12.244-6.293 3.347-3.88 4.85-8.39 4.51-13.538-.264-4.062-1.622-7.598-4.07-10.618 1.86-.264 3.118-.533 3.776-.795l.073-.037c5.19-2.001 9.163-5.464 11.913-10.388l.037-.036c3.024-5.33 3.23-11.103.625-17.33v.041c-2.43-6.333-7.696-10.175-15.802-11.526h.073a36.63 36.63 0 0 0-3.92-.533c.345-.56.662-1.158.95-1.784l.039-.076c2.01-4.586 2.24-9.274.698-14.066-.014-.03-.026-.068-.04-.112-1.678-4.777-4.635-8.306-8.87-10.58h.037c-3.693-2.17-8.86-2.94-15.506-2.312v-.039c-4.827.406-24.828 4.94-60.01 13.611.1-.176.196-.355.293-.531v.04c2.536-4.447 4.479-9.337 5.827-14.676l-.035.04c1.606-5.96 1.041-12.317-1.687-19.069C92.067 2.513 86.13-.927 77.419.213h-.035c-8.39.854-13.813 6.605-16.276 17.252-1.55 6.788-3.09 11.286-4.62 13.498l-.034.04c-1.696 1.991-4.471 4.115-8.323 6.369a.513.513 0 0 0-.074.037c-5.51 3.107-9.8 7.835-12.866 14.18v-.039a54.168 54.168 0 0 0-2.458 5.763c-3.054-2.048-5.718-2.973-7.99-2.765-7.58-.31-13.644 4.329-18.182 13.914l.035-.039C3.4 74.952 1.323 82.193.364 90.151v.039c-.932 8.034-.075 16.097 2.565 24.19l.036.038c2.957 9.54 10.386 14.51 22.287 14.9a4.657 4.657 0 0 0 1.76-.261c10.091 18.363 30.303 23.607 60.63 15.735 15.28 5.143 31.032 8.518 47.256 10.12h.035c4.592.456 8.773-.87 12.537-3.98 3.774-3.14 6.022-7.105 6.75-11.913zm-64.74-4.664a4.797 4.797 0 0 0-2.895-.076c-29.804 8.07-47.972 1.397-54.51-20.02-.395-1.377-1.197-2.412-2.42-3.107-1.228-.69-2.513-.83-3.847-.421-1.334.406-2.338 1.238-3.007 2.503-.67 1.27-.802 2.596-.405 3.979.126.47.26.937.405 1.405-5.22-.786-8.652-3.324-10.302-7.62l.038.039c-2.146-6.559-2.855-13.095-2.127-19.607.8-6.7 2.537-12.805 5.205-18.306l.038-.042c2.404-5.08 5.433-7.774 9.093-8.078 1.3.26 3.035 1.322 5.205 3.189-.13.768-.237 1.54-.331 2.31-.173 1.432.17 2.716 1.026 3.866.864 1.138 1.988 1.797 3.372 1.975 1.384.179 2.633-.174 3.74-1.064 1.098-.891 1.735-2.053 1.907-3.487.658-5.545 2.172-10.701 4.545-15.47v-.04c2.099-4.344 5.021-7.593 8.762-9.742l.073-.039c5.271-3.076 9.01-6.037 11.217-8.87l.038-.04c2.366-2.76 4.578-8.665 6.636-17.707 1.25-5.418 3.828-8.516 7.735-9.29h.037c3.49-.464 5.896.85 7.221 3.946 1.765 4.365 2.182 8.474 1.245 12.323l-.038.037c-1.093 4.37-2.669 8.376-4.73 12.02v.04c-2.531 4.485-4.083 8.454-4.653 11.904a2.919 2.919 0 0 0-.074.304c-.033.195-.059.4-.073.606-.114 1.67-.064 4.792.147 9.37v.074c.13 3.597-.947 8.107-3.225 13.535h-.036c-2.318 5.307-6.755 9.62-13.308 12.928-1.25.638-2.106 1.632-2.565 2.995-.461 1.36-.388 2.687.22 3.984.613 1.294 1.58 2.182 2.896 2.655 1.308.474 2.59.401 3.85-.23 9.09-4.576 15.163-10.628 18.217-18.16h-.035c3.08-7.278 4.448-13.356 4.105-18.238v-.074a163.084 163.084 0 0 1-.15-4.36c37.712-9.329 59.048-14.22 64.005-14.676v-.039c4.206-.381 7.493.008 9.861 1.175h.04c1.888 1.047 3.22 2.638 3.994 4.78l.04.11c.653 2.118.542 4.191-.331 6.217l-.038.079c-.873 1.86-2.24 3.146-4.105 3.868l.038-.041a153.941 153.941 0 0 1-9.166 3.11c-.092.024-.189.051-.29.076-.481.174-1.815.59-3.997 1.253a2.596 2.596 0 0 0-.331.076c-10.578 3.19-24.691 6.161-42.341 8.91-1.387.21-2.499.89-3.334 2.045-.828 1.172-1.133 2.474-.918 3.908.201 1.42.861 2.557 1.98 3.416 1.124.85 2.371 1.168 3.739.947 18.147-2.8 32.676-5.833 43.585-9.1 11.463-1.926 19.978-2.408 25.55-1.442h.076c4.02.666 6.722 2.438 8.101 5.308v.037c1.204 2.875 1.166 5.542-.111 8.004l.038-.041c-1.538 2.738-3.75 4.674-6.637 5.802-3.69 1.209-26.761 2.853-69.209 4.93a1.132 1.132 0 0 0-.182 0c-1.363.06-2.513.615-3.447 1.67-.944 1.057-1.399 2.295-1.356 3.717.05 1.429.573 2.642 1.576 3.638.998.984 2.184 1.466 3.556 1.44h.184c34.118-.556 52.08-.882 53.887-.984h.071c2.172-.16 4.08.47 5.719 1.894l.038.036c1.654 1.505 2.557 3.38 2.711 5.616.15 2.235-.499 4.192-1.942 5.876-1.443 1.68-3.265 2.613-5.46 2.804-3.436.252-6.87.424-10.302.531-2.432.047-4.94.071-7.515.074a4.08 4.08 0 0 0-.733 0c-12.419-.018-26.676-.913-42.781-2.692-1.382-.152-2.615.227-3.703 1.138-1.09.9-1.715 2.067-1.87 3.487-.146 1.431.22 2.704 1.101 3.827.87 1.128 1.997 1.777 3.374 1.936 15.788 1.747 29.854 2.667 42.192 2.767.021.037.047.074.073.115 1.072 1.589 1.439 3.412 1.1 5.457v.042c-.345 2.17-1.37 3.962-3.08 5.379-1.602 1.33-3.374 1.928-5.314 1.786-15.937-1.588-31.396-4.98-46.377-10.165z" id="Shape"/></g></g></svg>