<svg width="152" height="137" xmlns="http://www.w3.org/2000/svg"><g id="Page-1" stroke="none" stroke-width="1" fill="none" fill-rule="evenodd"><g id="rock" fill="#000" fill-rule="nonzero"><path d="M100.67 131.875c4.114-3.59 6.146-7.899 6.094-12.923v-.397c5.208-.718 9.997-2.658 14.373-5.823l.04-.041c6.68-4.976 9.952-10.973 9.817-17.988a22.225 22.225 0 0 0-.555-4.908c.608-.398 1.255-.824 1.937-1.273.08-.073.16-.137.238-.201 4.41-3.107 6.615-8.08 6.611-14.92.157-3.815-1.175-7.699-3.995-11.646a37.391 37.391 0 0 0 3.878-2.592 31.437 31.437 0 0 0 2.217-1.755c.304-.265.581-.559.832-.88.057-.078.125-.172.2-.28 6.549-6.037 9.755-12.038 9.618-17.985.343-6.158-2.81-12.128-9.46-17.914l-.042-.037c-10.884-9.82-24.7-11.762-41.449-5.823a99.74 99.74 0 0 0-1.148-1.238v.042C91.36 4.34 81.99-.09 71.768.008c-7.217-.197-15.426 3.47-24.623 11.01l-.041.041c-5.45 4.241-10.015 10.807-13.697 19.704-2.22-1.194-4.45-1.739-6.69-1.635-8.188-.325-14.733 4.552-19.639 14.64l.042-.04C3.67 50.651 1.427 58.27.392 66.583v.037c-1.003 8.452-.08 16.962 2.77 25.53l.042.04c2.966 9.336 10.107 14.505 21.417 15.517 1.156 2.288 2.662 4.683 4.513 7.181l.04.041c6.372 9.16 17.085 12.472 32.144 9.932a44.997 44.997 0 0 0 3.802 3.832v.041c6.285 5.68 12.816 8.431 19.597 8.257h.078c6.942-.136 12.207-1.813 15.796-5.028a.3.3 0 0 1 .078-.089zm-14.53-42.76c.079.046.157.1.237.16.53.317 1.058.64 1.584.957 3.944 2.392 8.1 4.082 12.468 5.065a43.989 43.989 0 0 0 9.818 1.076c3.418-.002 6.69-.468 9.817-1.395-.226 3.384-2.009 6.324-5.345 8.816l-.041.041c-3.737 2.69-7.932 4.033-12.59 4.029-5.521-.003-10.67-1.468-15.44-4.387l.041.038c-4.85-3.041-7.344-6.962-7.482-11.768-.002-1.927.604-3.362 1.82-4.306h.08a6.582 6.582 0 0 1 1.782-.799 36.26 36.26 0 0 0 3.252 2.474zm15.2-23.533a7.4 7.4 0 0 0 .636.16l1.742.316-.278-.078a43.288 43.288 0 0 0 13.064 1.115h.04a45.803 45.803 0 0 0 7.88-1.157c2.395 2.602 3.687 5.088 3.88 7.458-.004 2.6-.676 4.58-2.02 5.945l-.12.12c-.041.025-.078.052-.12.081a60.23 60.23 0 0 0-2.058 1.397h-.039c-.725.518-1.399.986-2.02 1.396a1.737 1.737 0 0 0-.197.12c-.31.122-.614.281-.91.478a5.366 5.366 0 0 0-.634.238c-3.078 1.467-6.39 2.2-9.937 2.194a33.615 33.615 0 0 1-7.443-.834c-3.23-.72-6.305-1.956-9.224-3.712-.526-.318-1.054-.64-1.584-.958-1.406-.992-2.593-2.056-3.563-3.19v.042c-1.976-2.37-2.964-5.068-2.968-8.1.002-2.048.688-3.563 2.06-4.546v-.041c1.767-.99 4.066-1.48 6.889-1.474 1.986 1.198 4.295 2.206 6.925 3.03zm33.97-36.936l.039.041c3.622 3.142 5.522 6.28 5.7 9.41-.293 3.281-2.39 6.696-6.294 10.253-.179.174-.35.362-.514.559-.14.171-.273.33-.394.48-.362.294-.69.544-.988.757a3.54 3.54 0 0 1-.2.16 26.668 26.668 0 0 1-6.849 3.831c-.828.243-1.672.483-2.533.717a34.63 34.63 0 0 1-7.404 1.237h-.039a32.655 32.655 0 0 1-9.858-.799c-.093-.027-.187-.051-.278-.078-.476-.09-.953-.18-1.426-.28a30.18 30.18 0 0 1-1.384-.48c1.82-1.01 3.402-2.405 4.75-4.187a.554.554 0 0 1 .082-.118c1.754-2.356 2.89-5.19 3.402-8.496 1.086.456 2.67 1.147 4.751 2.072 1.393.623 2.79.663 4.197.123 1.397-.553 2.4-1.522 3.008-2.915.62-1.4.66-2.807.121-4.229-.55-1.405-1.512-2.416-2.89-3.028-4.826-2.16-7.743-3.304-8.75-3.432a7.15 7.15 0 0 0-.513-.042 16.26 16.26 0 0 0-.594-.041c-.029-.095-.053-.19-.08-.278l-.041-.198c-.584-1.9-1.416-3.815-2.494-5.747 10.94-3.071 20.096-1.504 27.473 4.708zm-97.387 79.696l-.041-.042c-4.138-5.626-5.562-10.145-4.278-13.562.71-1.346.843-2.743.397-4.188-.44-1.455-1.323-2.544-2.652-3.268-1.332-.714-2.718-.847-4.156-.398-1.442.445-2.525 1.338-3.246 2.67a14.452 14.452 0 0 0-2.137 6.463c-4.073-1.22-6.845-3.689-8.314-7.42l.04.04c-2.318-6.946-3.082-13.845-2.297-20.7v-.04c.869-6.99 2.744-13.4 5.622-19.229l.04-.037c2.596-5.347 5.867-8.18 9.817-8.497.966.13 1.954.582 2.969 1.356a141.356 141.356 0 0 0-2.217 8.855c-.316 1.48-.066 2.865.752 4.148.81 1.292 1.943 2.101 3.404 2.435 1.471.32 2.843.068 4.117-.758 1.278-.818 2.083-1.956 2.414-3.432 3.5-16.11 8.766-27.146 15.796-33.107l.041-.042c6.726-5.518 12.653-8.379 17.774-8.575 7.306.111 14.034 3.409 20.19 9.894a42.163 42.163 0 0 1 2.93 3.39c.027.038.051.08.078.119.111.155.228.302.358.438 2.171 2.789 3.687 5.517 4.552 8.177l-.041-.199c.259.921.458 1.838.594 2.751a1.635 1.635 0 0 0 0 .201c.045.499.074 1.016.08 1.555-.002 2.558-.557 4.674-1.664 6.34l.078-.079c-.953 1.263-2.299 1.861-4.037 1.795a8.51 8.51 0 0 1-2.297-.28l-.119-.041h-.041c-1.631-.559-3.162-1.571-4.591-3.028h-.04c-3.517-3.509-6.076-6.024-7.68-7.543a5.402 5.402 0 0 0-.95-1.474c-.937-1.048-2.097-1.646-3.484-1.795-1.393-.155-2.658.174-3.8.998a5.39 5.39 0 0 0-2.14 3.31c-.57 1.966-.266 4.637.91 8.019l.042.08c.581 1.599.91 2.768.99 3.51-.105 3.427-1.5 6.977-4.197 10.651l-.041.038c-2.541 3.361-5.169 5.32-7.878 5.864-1.486.2-2.686.906-3.604 2.113-.926 1.21-1.298 2.565-1.107 4.07.2 1.496.898 2.705 2.097 3.63 1.2.932 2.546 1.307 4.041 1.116 4.816-.455 9.366-3.206 13.658-8.255a20.2 20.2 0 0 0-.122 2.232c0 3.163.565 6.127 1.704 8.896-.39.224-.773.466-1.15.719-4.539 2.784-6.807 7.288-6.81 13.52-.007.61.005 1.208.042 1.795-3.474.474-6.43 2.255-8.867 5.347l-.039.04c-2.586 3.135-3.878 7.095-3.88 11.887a16 16 0 0 0 .355 3.59c-8.094.64-14.087-1.383-17.965-6.063zm46.634 17.632c-4.17-.091-8.222-1.915-12.156-5.467v.041c-1.738-1.598-3.123-3.169-4.156-4.705l-.078-.122a4.94 4.94 0 0 0-.2-.28c-.955-1.554-1.456-3.096-1.503-4.626-.002-1.993.485-3.66 1.467-4.984l.039-.042c.665-.85 1.485-1.304 2.455-1.355.246-.005.446-.005.593 0 .089.035.181.074.278.118.31.159.628.291.951.4 2.069 2.94 4.96 5.574 8.67 7.898l.04.037c4.571 2.797 9.401 4.619 14.49 5.467.125.189.271.373.435.56l-.039.04c-.051 1.75-.79 3.263-2.218 4.546-2.096 1.563-5.091 2.387-8.986 2.476h-.082v-.002z" id="Shape"/></g></g></svg>