<svg width="200" height="137" xmlns="http://www.w3.org/2000/svg"><g id="Page-1" stroke="none" stroke-width="1" fill="none" fill-rule="evenodd"><g id="scissors" fill="#000" fill-rule="nonzero"><path d="M3.218 91.697c3.176 9.99 11.162 15.192 23.966 15.6a5.44 5.44 0 0 0 1.177-.08 32.84 32.84 0 0 0 3.904 4.849c5.623 5.86 12.23 8.77 19.827 8.732.769.017 1.994-.116 3.664-.394a32.08 32.08 0 0 1 1.62-.24h.432c1.355 2.546 3.26 5.097 5.716 7.663l.038.038c5.908 6.203 12.333 9.246 19.277 9.132 6.061-.027 11.369-1.73 15.922-5.121 5.238-3.88 7.76-8.391 7.57-13.54v-.278c6.632-.222 12.675-2.009 18.133-5.358l.041-.044c7.297-4.61 10.834-10.235 10.603-16.874.043-2.292-.324-4.5-1.105-6.634a367.685 367.685 0 0 0 19.867 3.178c13.974 1.847 23.462 2.374 28.46 1.588a.66.66 0 0 1 .079-.041c6.482-1.012 11.463-4.652 14.94-10.918l-.041.038c3.666-6.171 3.589-13.144-.238-20.925-3.093-7.656-13.104-12.116-30.036-13.38a24.358 24.358 0 0 0-.59-.04c11.83-3.677 19.03-8.3 21.599-13.857l.04-.04c4.133-7.743 4.696-13.978 1.697-18.7-2.443-4.572-6.107-7.718-10.997-9.451h.077c-4.164-1.564-8.904-2.25-14.23-2.065h-.08c-4.837.044-14.507 2.573-29.007 7.58-11.355 3.917-20.776 7.729-28.265 11.439-1.867-3.376-4.471-6.813-7.804-10.322C90.996 4.312 81.666-.09 71.49.007c-7.2-.191-15.383 3.451-24.56 10.92-5.435 4.25-9.976 10.8-13.642 19.653-2.21-1.16-4.43-1.69-6.658-1.588-8.137-.314-14.682 4.54-19.63 14.573-3.363 6.88-5.559 14.454-6.583 22.714-1.052 8.444-.12 16.915 2.8 25.418zm79.705 21.023h.043a46.229 46.229 0 0 0 11.657 4.3c.222.461.51.907.872 1.325-.188 1.75-1.247 3.341-3.174 4.78-2.72 2.03-5.888 3.03-9.52 3.011-4.102-.115-7.936-2.056-11.501-5.825l-.037-.037c-3.294-3.459-5.028-6.832-5.197-10.124 0-1.973.486-3.645 1.467-5.02l.04-.04c.669-.817 1.486-1.243 2.46-1.282.454-.002.757-.002.911 0a.53.53 0 0 1 .124.042h-.16a5.411 5.411 0 0 0 1.864.56c2.29 3.143 5.674 5.911 10.15 8.31zm-66.24-64.37c2.62-5.34 5.9-8.163 9.841-8.47.96.13 1.946.58 2.951 1.351a142.235 142.235 0 0 0-2.207 8.827c-.314 1.473-.065 2.851.751 4.133.806 1.284 1.936 2.093 3.383 2.425 1.461.32 2.831.068 4.096-.753 1.269-.814 2.07-1.955 2.404-3.421 3.486-16.076 8.735-27.112 15.741-33.108 6.692-5.457 12.582-8.28 17.675-8.47 7.258.11 13.95 3.396 20.075 9.858v-.041c3.884 4.102 6.495 8.065 7.831 11.884.015.041.03.08.043.119.408 1.473.624 2.943.63 4.412 0 2.524-.54 4.588-1.613 6.202-.943 1.23-2.272 1.815-3.978 1.747-2.572-.066-4.921-1.153-7.044-3.256-3.458-3.46-5.989-5.95-7.596-7.475a5.34 5.34 0 0 0-.984-1.592c-.933-1.044-2.09-1.638-3.462-1.788a5.26 5.26 0 0 0-3.782.994c-1.125.833-1.833 1.933-2.123 3.3-.576 1.935-.285 4.613.861 8.026.034.037.056.078.08.122.58 1.594.909 2.76.983 3.496-.098 3.416-1.514 6.953-4.249 10.614-2.517 3.349-5.141 5.306-7.872 5.883-1.466.218-2.65.933-3.543 2.147-.915 1.223-1.265 2.59-1.063 4.094.216 1.48.923 2.675 2.128 3.579 1.214.918 2.562 1.276 4.052 1.07 5.35-.588 10.339-3.983 14.957-10.175 3.215-4.291 5.235-8.507 6.058-12.64 3.83 3.103 8.028 4.627 12.596 4.572 5.413-.054 9.638-2.094 12.676-6.12l.043-.08c2.49-3.262 3.74-7.504 3.74-12.72.003-1.03-.05-2.065-.156-3.1 7.304-3.735 16.711-7.59 28.223-11.566 12.94-4.494 21.519-6.84 25.742-7.038h.076c3.786-.126 7.157.351 10.118 1.432h.08c2.25.809 3.946 2.27 5.074 4.373.688 2.04.096 4.807-1.769 8.308l.041-.037c-2.805 4.257-10.65 7.887-23.539 10.889l.04-.04c-15.215 3.483-29.556 7.335-43.025 11.568-1.341.426-2.363 1.262-3.069 2.502-.72 1.24-.928 2.554-.63 3.935.32 1.386 1.067 2.483 2.247 3.302 1.154.827 2.428 1.144 3.818.953 20.796-2.956 38.105-3.947 51.917-2.98 11.459.855 18.465 3.28 21.022 7.273 1.951 3.983 2.138 7.54.55 10.694l-.04.04c-1.67 3.057-4.048 4.871-7.124 5.446l.076-.044c-4.453.591-12.932.06-25.427-1.587-12.903-1.713-25.288-4.015-37.155-6.915a21.849 21.849 0 0 0-3.467-.836 6.634 6.634 0 0 0-.27-.04c-.486-.052-.999-.107-1.539-.158-1.487-.158-2.817.24-3.975 1.192-1.16.96-1.82 2.195-1.965 3.697-.156 1.5.237 2.84 1.178 4.01.955 1.175 2.176 1.836 3.66 1.989.411.044.805.085 1.181.121.092.017.183.03.276.041.437.085.869.19 1.298.318.12.053.25.106.394.157 1.943.681 3.79 1.81 5.55 3.38l.04.041c2.411 2.239 3.668 4.69 3.779 7.354-.228 2.89-2.05 5.42-5.473 7.593l.043-.041c-4.138 2.556-8.755 3.825-13.855 3.816-6.073.012-11.692-1.34-16.846-4.056h.039c-4.957-2.648-7.567-5.99-7.831-10.016-.044-1.517.566-2.617 1.809-3.303l-.039.044c1.824-.901 4.199-1.352 7.124-1.352 1.012.124 3.14.812 6.377 2.067.038.014.074.031.117.038 3.146 1.306 5.048 2.166 5.708 2.583 1.14 1 2.45 1.451 3.937 1.352 1.488-.114 2.721-.751 3.7-1.904.993-1.149 1.437-2.474 1.341-3.976-.12-1.5-.75-2.745-1.89-3.736-.902-.955-3.844-2.464-8.82-4.53a.84.84 0 0 1-.118-.042c-5.201-2.013-8.649-2.951-10.35-2.823-5.05-.005-9.134.87-12.241 2.624l-.043.041c-4.93 2.695-7.419 6.976-7.479 12.837-4.016.177-7.39 1.97-10.113 5.366l-.043.044c-2.413 3-3.697 6.67-3.855 11.007-.389.05-.835.119-1.342.199h-.038c-.85.145-1.466.225-1.85.24-4.587-.037-8.59-1.84-12.006-5.404-3.299-3.41-5.07-7.28-5.31-11.605-.074-1.517-.664-2.784-1.775-3.816-1.106-1.027-2.409-1.502-3.894-1.432-1.5.07-2.759.666-3.776 1.786s-1.49 2.43-1.42 3.935c.038.918.117 1.82.235 2.706-5.355-.882-8.9-3.52-10.624-7.91-2.34-6.865-3.083-13.697-2.25-20.51.86-7 2.71-13.413 5.542-19.242z" id="Shape"/></g></g></svg>